<svg width="190" height="114" viewBox="0 0 190 114" fill="none" xmlns="http://www.w3.org/2000/svg">
<g clip-path="url(#clip0)">
<path d="M13.5181 81H14.3581C14.6461 81 14.8381 81.024 14.9341 81.072C15.0461 81.104 15.1981 81.2 15.3901 81.36C15.6461 81.568 15.7741 81.768 15.7741 81.96H15.8701C15.8701 81.768 16.0461 81.568 16.3981 81.36C16.6861 81.184 16.8781 81.08 16.9741 81.048C17.0861 81.016 17.2861 81 17.5741 81H22.1581C22.5421 81 22.9261 81.16 23.3101 81.48L23.8861 81.96C24.2701 82.28 24.4621 82.68 24.4621 83.16V90.84C24.4621 91.32 24.2701 91.72 23.8861 92.04L23.3101 92.52C22.9261 92.84 22.5421 93 22.1581 93H17.9341C17.5181 93 17.1341 92.84 16.7821 92.52C16.3981 92.136 16.2061 91.896 16.2061 91.8H16.1101V99.24H14.0941V83.664C14.0941 83.424 14.0781 83.272 14.0461 83.208C14.0301 83.128 13.9501 83.032 13.8061 82.92C13.6621 82.808 13.5741 82.72 13.5421 82.656C13.5261 82.576 13.5181 82.416 13.5181 82.176V81ZM17.8381 91.32H21.2701C21.5581 91.32 21.7421 91.312 21.8221 91.296C21.9021 91.264 22.0141 91.192 22.1581 91.08C22.3021 90.968 22.3821 90.88 22.3981 90.816C22.4301 90.736 22.4461 90.576 22.4461 90.336V83.664C22.4461 83.424 22.4301 83.272 22.3981 83.208C22.3821 83.128 22.3021 83.032 22.1581 82.92C22.0141 82.808 21.9021 82.744 21.8221 82.728C21.7421 82.696 21.5581 82.68 21.2701 82.68H17.8621C17.5741 82.68 17.3741 82.696 17.2621 82.728C17.1661 82.76 16.9741 82.864 16.6861 83.04C16.3981 83.216 16.2301 83.344 16.1821 83.424C16.1341 83.504 16.1101 83.664 16.1101 83.904V89.88C16.1101 90.2 16.3021 90.52 16.6861 90.84C17.0701 91.16 17.4541 91.32 17.8381 91.32ZM29.4583 93H27.4423V81H29.4583V93ZM29.6743 77.256V77.448C29.6743 77.752 29.6583 77.944 29.6263 78.024C29.6103 78.104 29.5383 78.2 29.4103 78.312C29.2823 78.44 28.9863 78.504 28.5223 78.504H28.4023C28.0503 78.504 27.8343 78.496 27.7543 78.48C27.6743 78.464 27.5783 78.408 27.4663 78.312C27.3543 78.2 27.2823 78.104 27.2503 78.024C27.2343 77.944 27.2263 77.752 27.2263 77.448V77.256C27.2263 76.952 27.2343 76.76 27.2503 76.68C27.2823 76.6 27.3623 76.504 27.4902 76.392C27.5863 76.296 27.6743 76.24 27.7543 76.224C27.8343 76.208 28.0503 76.2 28.4023 76.2H28.4983C28.9783 76.2 29.2903 76.264 29.4342 76.392C29.5463 76.504 29.6103 76.6 29.6263 76.68C29.6583 76.76 29.6743 76.952 29.6743 77.256ZM42.0322 84.12H40.0162V83.664C40.0162 83.424 40.0002 83.272 39.9682 83.208C39.9522 83.128 39.8722 83.032 39.7282 82.92C39.5842 82.808 39.4722 82.744 39.3922 82.728C39.3122 82.696 39.1282 82.68 38.8402 82.68H35.6242C35.3362 82.68 35.1522 82.696 35.0722 82.728C34.9922 82.744 34.8802 82.808 34.7362 82.92C34.5922 83.032 34.5042 83.128 34.4722 83.208C34.4562 83.272 34.4482 83.424 34.4482 83.664V90.336C34.4482 90.576 34.4562 90.736 34.4722 90.816C34.5042 90.88 34.5922 90.968 34.7362 91.08C34.8802 91.192 34.9922 91.264 35.0722 91.296C35.1522 91.312 35.3362 91.32 35.6242 91.32H38.8402C39.1282 91.32 39.3122 91.312 39.3922 91.296C39.4722 91.264 39.5842 91.192 39.7282 91.08C39.8722 90.968 39.9522 90.88 39.9682 90.816C40.0002 90.736 40.0162 90.576 40.0162 90.336V89.88H42.0322V90.84C42.0322 91.32 41.8402 91.72 41.4562 92.04L40.8802 92.52C40.4962 92.84 40.1122 93 39.7282 93H34.7362C34.3522 93 33.9682 92.84 33.5842 92.52L33.0082 92.04C32.6242 91.72 32.4322 91.32 32.4322 90.84V83.16C32.4322 82.68 32.6242 82.28 33.0082 81.96L33.5842 81.48C33.9682 81.16 34.3522 81 34.7362 81H39.7282C40.1122 81 40.4962 81.16 40.8802 81.48L41.4562 81.96C41.8402 82.28 42.0322 82.68 42.0322 83.16V84.12ZM44.7838 93V75.24H46.7998V86.16H48.8158L50.9758 82.632C51.1518 82.36 51.2798 82.176 51.3598 82.08C51.4558 81.984 51.6238 81.848 51.8638 81.672L52.3198 81.36C52.5758 81.184 52.7518 81.08 52.8478 81.048C52.9598 81.016 53.1598 81 53.4478 81H53.9278V81.936C53.9278 82.304 53.9038 82.536 53.8558 82.632C53.8078 82.712 53.6398 82.832 53.3518 82.992L53.0878 83.136C52.8478 83.28 52.6878 83.4 52.6078 83.496C52.5278 83.576 52.3918 83.752 52.1998 84.024L50.6398 86.448C50.4958 86.672 50.3518 86.824 50.2078 86.904V87C50.3518 87.032 50.5358 87.216 50.7598 87.552L54.2638 93H52.0318L48.8398 87.84H46.7998V93H44.7838ZM65.2318 92.04H65.1358C65.1358 92.232 64.9598 92.432 64.6078 92.64C64.3198 92.816 64.1198 92.92 64.0078 92.952C63.9118 92.984 63.7198 93 63.4318 93H59.3278C58.9438 93 58.5598 92.84 58.1758 92.52L57.5998 92.04C57.2158 91.72 57.0238 91.32 57.0238 90.84V87.96C57.0238 87.48 57.2158 87.08 57.5998 86.76L58.1758 86.28C58.5598 85.96 58.9438 85.8 59.3278 85.8H63.6238C63.9278 85.8 64.1198 85.816 64.1998 85.848C64.2798 85.864 64.3838 85.928 64.5118 86.04C64.7038 86.2 64.7998 86.36 64.7998 86.52H64.8958V83.664C64.8958 83.424 64.8798 83.272 64.8478 83.208C64.8318 83.128 64.7518 83.032 64.6078 82.92C64.4638 82.808 64.3518 82.744 64.2718 82.728C64.1918 82.696 64.0078 82.68 63.7198 82.68H59.8318C59.5438 82.68 59.3438 82.704 59.2318 82.752C59.1358 82.784 58.9438 82.92 58.6558 83.16L57.2158 81.96L57.7918 81.48C58.0798 81.24 58.2718 81.104 58.3678 81.072C58.4798 81.024 58.6798 81 58.9678 81H64.6078C64.9918 81 65.3758 81.16 65.7598 81.48L66.3358 81.96C66.7198 82.28 66.9118 82.68 66.9118 83.16V90.336C66.9118 90.576 66.9198 90.736 66.9358 90.816C66.9678 90.88 67.0558 90.968 67.1998 91.08C67.3438 91.192 67.4238 91.288 67.4398 91.368C67.4718 91.432 67.4878 91.584 67.4878 91.824V93H66.6478C66.3598 93 66.1598 92.984 66.0478 92.952C65.9518 92.904 65.8078 92.8 65.6158 92.64C65.3598 92.432 65.2318 92.232 65.2318 92.04ZM59.0398 88.464V90.336C59.0398 90.576 59.0478 90.736 59.0638 90.816C59.0958 90.88 59.1838 90.968 59.3278 91.08C59.4718 91.192 59.5838 91.264 59.6638 91.296C59.7438 91.312 59.9278 91.32 60.2158 91.32H63.1438C63.4318 91.32 63.6238 91.304 63.7198 91.272C63.8318 91.24 64.0318 91.136 64.3198 90.96C64.6078 90.784 64.7758 90.656 64.8238 90.576C64.8718 90.496 64.8958 90.336 64.8958 90.096V88.464C64.8958 88.224 64.8798 88.072 64.8478 88.008C64.8318 87.928 64.7518 87.832 64.6078 87.72C64.4638 87.608 64.3518 87.544 64.2718 87.528C64.1918 87.496 64.0078 87.48 63.7198 87.48H60.2158C59.9278 87.48 59.7438 87.496 59.6638 87.528C59.5838 87.544 59.4718 87.608 59.3278 87.72C59.1838 87.832 59.0958 87.928 59.0638 88.008C59.0478 88.072 59.0398 88.224 59.0398 88.464ZM78.7295 90.336V83.664C78.7295 83.424 78.7135 83.272 78.6815 83.208C78.6655 83.128 78.5855 83.032 78.4415 82.92C78.2975 82.808 78.1855 82.744 78.1055 82.728C78.0255 82.696 77.8415 82.68 77.5535 82.68H74.1695C73.8655 82.68 73.6575 82.696 73.5455 82.728C73.4495 82.76 73.2575 82.864 72.9695 83.04C72.6815 83.216 72.5135 83.344 72.4655 83.424C72.4175 83.504 72.3935 83.664 72.3935 83.904V90.096C72.3935 90.336 72.4175 90.496 72.4655 90.576C72.5135 90.656 72.6815 90.784 72.9695 90.96C73.2575 91.136 73.4495 91.24 73.5455 91.272C73.6575 91.304 73.8575 91.32 74.1455 91.32H77.5535C77.8415 91.32 78.0255 91.312 78.1055 91.296C78.1855 91.264 78.2975 91.192 78.4415 91.08C78.5855 90.968 78.6655 90.88 78.6815 90.816C78.7135 90.736 78.7295 90.576 78.7295 90.336ZM72.3935 75.24V82.128H72.4895C72.4895 81.984 72.6655 81.76 73.0175 81.456C73.3695 81.152 73.6735 81 73.9295 81H78.4415C78.8255 81 79.2095 81.16 79.5935 81.48L80.1695 81.96C80.5535 82.28 80.7455 82.68 80.7455 83.16V90.84C80.7455 91.32 80.5535 91.72 80.1695 92.04L79.5935 92.52C79.2095 92.84 78.8255 93 78.4415 93H73.9535C73.6655 93 73.4655 92.984 73.3535 92.952C73.2575 92.92 73.0655 92.816 72.7775 92.64C72.4095 92.464 72.2175 92.288 72.2015 92.112H72.1055V93H70.3775V75.24H72.3935ZM85.9477 81H91.7077C92.0917 81 92.4757 81.16 92.8597 81.48L93.4357 81.96C93.8197 82.28 94.0117 82.68 94.0117 83.16V90.84C94.0117 91.32 93.8197 91.72 93.4357 92.04L92.8597 92.52C92.4757 92.84 92.0917 93 91.7077 93H85.9477C85.5637 93 85.1797 92.84 84.7957 92.52L84.2197 92.04C83.8357 91.72 83.6437 91.32 83.6437 90.84V83.16C83.6437 82.68 83.8357 82.28 84.2197 81.96L84.7957 81.48C85.1797 81.16 85.5637 81 85.9477 81ZM91.9957 90.336V83.664C91.9957 83.424 91.9797 83.272 91.9477 83.208C91.9317 83.128 91.8517 83.032 91.7077 82.92C91.5637 82.808 91.4517 82.744 91.3717 82.728C91.2917 82.696 91.1077 82.68 90.8197 82.68H86.8357C86.5477 82.68 86.3637 82.696 86.2837 82.728C86.2037 82.744 86.0917 82.808 85.9477 82.92C85.8037 83.032 85.7157 83.128 85.6837 83.208C85.6677 83.272 85.6597 83.424 85.6597 83.664V90.336C85.6597 90.576 85.6677 90.736 85.6837 90.816C85.7157 90.88 85.8037 90.968 85.9477 91.08C86.0917 91.192 86.2037 91.264 86.2837 91.296C86.3637 91.312 86.5477 91.32 86.8357 91.32H90.8197C91.1077 91.32 91.2917 91.312 91.3717 91.296C91.4517 91.264 91.5637 91.192 91.7077 91.08C91.8517 90.968 91.9317 90.88 91.9477 90.816C91.9797 90.736 91.9957 90.576 91.9957 90.336ZM101.349 85.32H101.445C101.445 85.128 101.549 84.88 101.757 84.576L104.109 81H106.197L102.429 86.784L106.485 93H104.397L101.757 88.968C101.549 88.648 101.445 88.408 101.445 88.248H101.349C101.349 88.408 101.245 88.648 101.037 88.968L98.3968 93H96.3088L100.365 86.784L96.5968 81H98.6848L101.037 84.576C101.245 84.88 101.349 85.128 101.349 85.32ZM110.784 91.584V92.136C110.784 92.376 110.776 92.528 110.76 92.592C110.744 92.656 110.68 92.736 110.568 92.832C110.456 92.944 110.216 93 109.848 93H109.728C109.344 93 109.088 92.944 108.96 92.832C108.832 92.704 108.768 92.472 108.768 92.136V91.584C108.768 91.344 108.776 91.192 108.792 91.128C108.808 91.064 108.872 90.984 108.984 90.888C109.096 90.776 109.344 90.72 109.728 90.72H109.824C110.208 90.72 110.464 90.776 110.592 90.888C110.72 91.016 110.784 91.248 110.784 91.584ZM121.299 86.04C121.683 86.04 122.067 86.2 122.451 86.52L123.027 87C123.411 87.32 123.603 87.72 123.603 88.2V90.84C123.603 91.32 123.411 91.72 123.027 92.04L122.451 92.52C122.067 92.84 121.683 93 121.299 93H115.971C115.587 93 115.203 92.84 114.819 92.52L114.243 92.04C113.859 91.72 113.667 91.32 113.667 90.84V89.88H115.683V90.336C115.683 90.576 115.691 90.736 115.707 90.816C115.739 90.88 115.827 90.968 115.971 91.08C116.115 91.192 116.227 91.264 116.307 91.296C116.387 91.312 116.571 91.32 116.859 91.32H120.411C120.699 91.32 120.883 91.312 120.963 91.296C121.043 91.264 121.155 91.192 121.299 91.08C121.443 90.968 121.523 90.88 121.539 90.816C121.571 90.736 121.587 90.576 121.587 90.336V88.392C121.571 88.264 121.475 88.12 121.299 87.96C121.155 87.848 121.043 87.784 120.963 87.768C120.883 87.736 120.699 87.72 120.411 87.72H116.211C115.827 87.72 115.443 87.56 115.059 87.24L114.483 86.76C114.099 86.44 113.907 86.04 113.907 85.56V83.16C113.907 82.68 114.099 82.28 114.483 81.96L115.059 81.48C115.443 81.16 115.827 81 116.211 81H121.299C121.683 81 122.067 81.16 122.451 81.48L123.027 81.96C123.411 82.28 123.603 82.68 123.603 83.16V84.12H121.587V83.664C121.587 83.424 121.571 83.272 121.539 83.208C121.523 83.128 121.443 83.032 121.299 82.92C121.155 82.808 121.043 82.744 120.963 82.728C120.883 82.696 120.699 82.68 120.411 82.68H117.099C116.811 82.68 116.627 82.696 116.547 82.728C116.467 82.744 116.355 82.808 116.211 82.92C116.067 83.032 115.979 83.128 115.947 83.208C115.931 83.272 115.923 83.424 115.923 83.664V85.056C115.923 85.296 115.931 85.456 115.947 85.536C115.979 85.6 116.067 85.688 116.211 85.8C116.355 85.912 116.467 85.984 116.547 86.016C116.627 86.032 116.811 86.04 117.099 86.04H121.299ZM126.487 81H127.327C127.615 81 127.807 81.024 127.903 81.072C128.015 81.104 128.167 81.2 128.359 81.36C128.615 81.568 128.743 81.768 128.743 81.96H128.839C128.839 81.768 129.015 81.568 129.367 81.36C129.655 81.184 129.847 81.08 129.943 81.048C130.055 81.016 130.255 81 130.543 81H135.127C135.511 81 135.895 81.16 136.279 81.48L136.855 81.96C137.239 82.28 137.431 82.68 137.431 83.16V90.84C137.431 91.32 137.239 91.72 136.855 92.04L136.279 92.52C135.895 92.84 135.511 93 135.127 93H130.903C130.487 93 130.103 92.84 129.751 92.52C129.367 92.136 129.175 91.896 129.175 91.8H129.079V99.24H127.063V83.664C127.063 83.424 127.047 83.272 127.015 83.208C126.999 83.128 126.919 83.032 126.775 82.92C126.631 82.808 126.543 82.72 126.511 82.656C126.495 82.576 126.487 82.416 126.487 82.176V81ZM130.807 91.32H134.239C134.527 91.32 134.711 91.312 134.791 91.296C134.871 91.264 134.983 91.192 135.127 91.08C135.271 90.968 135.351 90.88 135.367 90.816C135.399 90.736 135.415 90.576 135.415 90.336V83.664C135.415 83.424 135.399 83.272 135.367 83.208C135.351 83.128 135.271 83.032 135.127 82.92C134.983 82.808 134.871 82.744 134.791 82.728C134.711 82.696 134.527 82.68 134.239 82.68H130.831C130.543 82.68 130.343 82.696 130.231 82.728C130.135 82.76 129.943 82.864 129.655 83.04C129.367 83.216 129.199 83.344 129.151 83.424C129.103 83.504 129.079 83.664 129.079 83.904V89.88C129.079 90.2 129.271 90.52 129.655 90.84C130.039 91.16 130.423 91.32 130.807 91.32ZM148.763 92.04H148.667C148.667 92.232 148.491 92.432 148.139 92.64C147.851 92.816 147.651 92.92 147.539 92.952C147.443 92.984 147.251 93 146.963 93H142.859C142.475 93 142.091 92.84 141.707 92.52L141.131 92.04C140.747 91.72 140.555 91.32 140.555 90.84V87.96C140.555 87.48 140.747 87.08 141.131 86.76L141.707 86.28C142.091 85.96 142.475 85.8 142.859 85.8H147.155C147.459 85.8 147.651 85.816 147.731 85.848C147.811 85.864 147.915 85.928 148.043 86.04C148.235 86.2 148.331 86.36 148.331 86.52H148.427V83.664C148.427 83.424 148.411 83.272 148.379 83.208C148.363 83.128 148.283 83.032 148.139 82.92C147.995 82.808 147.883 82.744 147.803 82.728C147.723 82.696 147.539 82.68 147.251 82.68H143.363C143.075 82.68 142.875 82.704 142.763 82.752C142.667 82.784 142.475 82.92 142.187 83.16L140.747 81.96L141.323 81.48C141.611 81.24 141.803 81.104 141.899 81.072C142.011 81.024 142.211 81 142.499 81H148.139C148.523 81 148.907 81.16 149.291 81.48L149.867 81.96C150.251 82.28 150.443 82.68 150.443 83.16V90.336C150.443 90.576 150.451 90.736 150.467 90.816C150.499 90.88 150.587 90.968 150.731 91.08C150.875 91.192 150.955 91.288 150.971 91.368C151.003 91.432 151.019 91.584 151.019 91.824V93H150.179C149.891 93 149.691 92.984 149.579 92.952C149.483 92.904 149.339 92.8 149.147 92.64C148.891 92.432 148.763 92.232 148.763 92.04ZM142.571 88.464V90.336C142.571 90.576 142.579 90.736 142.595 90.816C142.627 90.88 142.715 90.968 142.859 91.08C143.003 91.192 143.115 91.264 143.195 91.296C143.275 91.312 143.459 91.32 143.747 91.32H146.675C146.963 91.32 147.155 91.304 147.251 91.272C147.363 91.24 147.563 91.136 147.851 90.96C148.139 90.784 148.307 90.656 148.355 90.576C148.403 90.496 148.427 90.336 148.427 90.096V88.464C148.427 88.224 148.411 88.072 148.379 88.008C148.363 87.928 148.283 87.832 148.139 87.72C147.995 87.608 147.883 87.544 147.803 87.528C147.723 87.496 147.539 87.48 147.251 87.48H143.747C143.459 87.48 143.275 87.496 143.195 87.528C143.115 87.544 143.003 87.608 142.859 87.72C142.715 87.832 142.627 87.928 142.595 88.008C142.579 88.072 142.571 88.224 142.571 88.464ZM163.509 84.12H161.493V83.664C161.493 83.424 161.477 83.272 161.445 83.208C161.429 83.128 161.349 83.032 161.205 82.92C161.061 82.808 160.949 82.744 160.869 82.728C160.789 82.696 160.605 82.68 160.317 82.68H157.101C156.813 82.68 156.629 82.696 156.549 82.728C156.469 82.744 156.357 82.808 156.213 82.92C156.069 83.032 155.981 83.128 155.949 83.208C155.933 83.272 155.925 83.424 155.925 83.664V90.336C155.925 90.576 155.933 90.736 155.949 90.816C155.981 90.88 156.069 90.968 156.213 91.08C156.357 91.192 156.469 91.264 156.549 91.296C156.629 91.312 156.813 91.32 157.101 91.32H160.317C160.605 91.32 160.789 91.312 160.869 91.296C160.949 91.264 161.061 91.192 161.205 91.08C161.349 90.968 161.429 90.88 161.445 90.816C161.477 90.736 161.493 90.576 161.493 90.336V89.88H163.509V90.84C163.509 91.32 163.317 91.72 162.933 92.04L162.357 92.52C161.973 92.84 161.589 93 161.205 93H156.213C155.829 93 155.445 92.84 155.061 92.52L154.485 92.04C154.101 91.72 153.909 91.32 153.909 90.84V83.16C153.909 82.68 154.101 82.28 154.485 81.96L155.061 81.48C155.445 81.16 155.829 81 156.213 81H161.205C161.589 81 161.973 81.16 162.357 81.48L162.933 81.96C163.317 82.28 163.509 82.68 163.509 83.16V84.12ZM175.284 90.84L176.724 92.04L176.148 92.52C175.86 92.76 175.66 92.904 175.548 92.952C175.452 92.984 175.26 93 174.972 93H168.564C168.18 93 167.796 92.84 167.412 92.52L166.836 92.04C166.452 91.72 166.26 91.32 166.26 90.84V83.16C166.26 82.68 166.452 82.28 166.836 81.96L167.412 81.48C167.796 81.16 168.18 81 168.564 81H174.156C174.476 81 174.86 81.16 175.308 81.48L175.908 81.96C176.292 82.248 176.484 82.648 176.484 83.16V88.08H168.276V90.336C168.276 90.576 168.284 90.736 168.3 90.816C168.332 90.88 168.42 90.968 168.564 91.08C168.708 91.192 168.82 91.264 168.9 91.296C168.98 91.312 169.164 91.32 169.452 91.32H174.108C174.396 91.32 174.588 91.304 174.684 91.272C174.796 91.224 174.996 91.08 175.284 90.84ZM174.468 86.52V83.664C174.468 83.424 174.452 83.272 174.42 83.208C174.404 83.128 174.324 83.032 174.18 82.92C174.036 82.808 173.924 82.744 173.844 82.728C173.764 82.696 173.58 82.68 173.292 82.68H169.452C169.164 82.68 168.98 82.696 168.9 82.728C168.82 82.744 168.708 82.808 168.564 82.92C168.42 83.032 168.332 83.128 168.3 83.208C168.284 83.272 168.276 83.424 168.276 83.664V86.52H174.468Z" fill="black"/>
<path d="M110 51.3333V73H80V51.3333" stroke="#111111" stroke-width="3" stroke-linecap="round" stroke-linejoin="round"/>
<path d="M113.333 43H76.6667V51.3333H113.333V43Z" stroke="#111111" stroke-width="3" stroke-linecap="round" stroke-linejoin="round"/>
<path d="M91.6667 58H98.3333" stroke="#111111" stroke-width="3" stroke-linecap="round" stroke-linejoin="round"/>
<path d="M95 7V33" stroke="#111111" stroke-width="3" stroke-linecap="round" stroke-linejoin="round"/>
<path d="M106.667 23L95 34.6667L83.3333 23" stroke="#111111" stroke-width="3" stroke-linecap="round" stroke-linejoin="round"/>
<path d="M56.0527 111.256C55.6426 111.256 55.3438 111.207 55.1562 111.109L55.1914 110.248C55.4609 110.326 55.7441 110.365 56.041 110.365C56.4316 110.365 56.7559 110.242 57.0137 109.996C57.2676 109.754 57.4434 109.398 57.541 108.93L59.3398 100.434H60.3359L58.5254 109.035C58.2168 110.516 57.3926 111.256 56.0527 111.256ZM62.8789 102.578L62 106.65C61.9297 106.998 61.8945 107.27 61.8945 107.465C61.8945 108.023 62.1816 108.303 62.7559 108.303C63.0996 108.303 63.4375 108.186 63.7695 107.951C64.1016 107.717 64.3945 107.381 64.6484 106.943C64.9023 106.506 65.0957 105.979 65.2285 105.361L65.8145 102.578H66.7871L65.4336 109H64.6191L64.748 107.811H64.6777C64.2949 108.299 63.9297 108.639 63.582 108.83C63.2344 109.021 62.875 109.117 62.5039 109.117C62.0039 109.117 61.6113 108.982 61.3262 108.713C61.041 108.439 60.8984 108.051 60.8984 107.547C60.8984 107.305 60.9414 106.969 61.0273 106.539L61.8828 102.578H62.8789ZM71.4688 107.178C71.4688 107.787 71.252 108.264 70.8184 108.607C70.3887 108.947 69.7812 109.117 68.9961 109.117C68.3359 109.117 67.7402 108.982 67.209 108.713V107.787C67.4824 107.951 67.7773 108.078 68.0938 108.168C68.4102 108.258 68.7031 108.303 68.9727 108.303C69.4648 108.303 69.8359 108.205 70.0859 108.01C70.3359 107.814 70.4609 107.564 70.4609 107.26C70.4609 107.037 70.3926 106.85 70.2559 106.697C70.1191 106.545 69.8242 106.336 69.3711 106.07C68.8633 105.785 68.5039 105.506 68.293 105.232C68.082 104.959 67.9766 104.635 67.9766 104.26C67.9766 103.721 68.1738 103.287 68.5684 102.959C68.9629 102.627 69.4824 102.461 70.127 102.461C70.7949 102.461 71.4395 102.605 72.0605 102.895L71.7441 103.697L71.416 103.551C71.0215 103.383 70.5918 103.299 70.127 103.299C69.7637 103.299 69.4785 103.385 69.2715 103.557C69.0645 103.725 68.9609 103.943 68.9609 104.213C68.9609 104.432 69.0293 104.619 69.166 104.775C69.3066 104.932 69.5938 105.133 70.0273 105.379C70.4453 105.613 70.7441 105.814 70.9238 105.982C71.1074 106.15 71.2441 106.332 71.334 106.527C71.4238 106.719 71.4688 106.936 71.4688 107.178ZM74.6211 108.314C74.8359 108.314 75.1172 108.264 75.4648 108.162V108.918C75.332 108.973 75.168 109.02 74.9727 109.059C74.7773 109.098 74.6211 109.117 74.5039 109.117C74.0156 109.117 73.6406 109.002 73.3789 108.771C73.1211 108.537 72.9922 108.189 72.9922 107.729C72.9922 107.471 73.0273 107.178 73.0977 106.85L73.8418 103.322H72.834L72.916 102.895L74 102.438L74.7324 101.102H75.3066L74.9844 102.578H76.5898L76.4375 103.322H74.8379L74.082 106.861C74.0117 107.201 73.9766 107.459 73.9766 107.635C73.9766 107.854 74.0332 108.021 74.1465 108.139C74.2598 108.256 74.418 108.314 74.6211 108.314ZM82.5078 109.117C82.1289 109.117 81.7969 109.02 81.5117 108.824C81.2266 108.629 81.0059 108.355 80.8496 108.004H80.791L80.7676 108.227C80.7559 108.324 80.7344 108.461 80.7031 108.637C80.6758 108.812 80.4531 109.895 80.0352 111.883H79.0625L81.0312 102.578H81.8457L81.6934 103.803H81.7402C82.4395 102.916 83.166 102.473 83.9199 102.473C84.4551 102.473 84.877 102.664 85.1855 103.047C85.4941 103.426 85.6484 103.959 85.6484 104.646C85.6484 105.475 85.5137 106.234 85.2441 106.926C84.9746 107.617 84.6016 108.156 84.125 108.543C83.6484 108.926 83.1094 109.117 82.5078 109.117ZM83.5977 103.287C83.2227 103.287 82.8398 103.473 82.4492 103.844C82.0625 104.215 81.7539 104.682 81.5234 105.244C81.2969 105.807 81.1836 106.383 81.1836 106.973C81.1836 107.402 81.291 107.732 81.5059 107.963C81.7246 108.189 82.0391 108.303 82.4492 108.303C82.8359 108.303 83.1953 108.145 83.5273 107.828C83.8633 107.512 84.1328 107.062 84.3359 106.48C84.5391 105.895 84.6406 105.273 84.6406 104.617C84.6406 103.73 84.293 103.287 83.5977 103.287ZM87.5703 109H86.5859L87.957 102.578H88.9414L87.5703 109ZM88.2324 100.938C88.2324 100.719 88.2949 100.541 88.4199 100.404C88.5449 100.264 88.707 100.193 88.9062 100.193C89.25 100.193 89.4219 100.369 89.4219 100.721C89.4219 100.936 89.3555 101.117 89.2227 101.266C89.0938 101.414 88.9434 101.488 88.7715 101.488C88.6152 101.488 88.4863 101.441 88.3848 101.348C88.2832 101.25 88.2324 101.113 88.2324 100.938ZM92.252 109.117C91.4941 109.117 90.9062 108.908 90.4883 108.49C90.0703 108.072 89.8613 107.482 89.8613 106.721C89.8613 105.939 90.0059 105.219 90.2949 104.559C90.584 103.898 90.9824 103.385 91.4902 103.018C92.002 102.646 92.5762 102.461 93.2129 102.461C93.748 102.461 94.2715 102.561 94.7832 102.76L94.5078 103.586C94.0391 103.387 93.6113 103.287 93.2246 103.287C92.7871 103.287 92.3867 103.438 92.0234 103.738C91.6641 104.035 91.3809 104.451 91.1738 104.986C90.9707 105.518 90.8691 106.096 90.8691 106.721C90.8691 107.221 90.998 107.609 91.2559 107.887C91.5176 108.164 91.877 108.303 92.334 108.303C92.6152 108.303 92.8809 108.264 93.1309 108.186C93.3809 108.107 93.627 108.016 93.8691 107.91V108.748C93.3848 108.994 92.8457 109.117 92.252 109.117ZM96.623 105.725L99.7051 102.578H100.883L98.1348 105.314L99.8633 109H98.7676L97.3906 105.93L96.5 106.65L96.0195 109H95.0234L96.957 99.8828H97.9531C97.6719 101.195 97.4199 102.371 97.1973 103.41C96.9746 104.449 96.7754 105.221 96.5996 105.725H96.623ZM107.41 102.461C107.77 102.461 108.09 102.559 108.371 102.754C108.652 102.945 108.871 103.223 109.027 103.586H109.092L109.484 102.578H110.229L108.863 109H108.084L108.236 107.775H108.189C107.49 108.67 106.754 109.117 105.98 109.117C105.438 109.117 105.012 108.924 104.703 108.537C104.395 108.15 104.24 107.621 104.24 106.949C104.24 106.137 104.379 105.383 104.656 104.688C104.934 103.992 105.316 103.447 105.805 103.053C106.293 102.658 106.828 102.461 107.41 102.461ZM106.297 108.303C106.676 108.303 107.053 108.123 107.428 107.764C107.803 107.4 108.107 106.93 108.342 106.352C108.576 105.77 108.693 105.188 108.693 104.605C108.693 104.203 108.584 103.883 108.365 103.645C108.146 103.406 107.859 103.287 107.504 103.287C107.098 103.287 106.719 103.455 106.367 103.791C106.02 104.127 105.746 104.582 105.547 105.156C105.348 105.73 105.248 106.336 105.248 106.973C105.248 107.418 105.34 107.752 105.523 107.975C105.707 108.193 105.965 108.303 106.297 108.303ZM116.762 109.117C116.383 109.117 116.049 109.018 115.76 108.818C115.475 108.619 115.26 108.348 115.115 108.004H115.057L114.646 109H113.914L115.848 99.8828H116.832C116.633 100.828 116.479 101.553 116.369 102.057C116.264 102.557 116.117 103.143 115.93 103.814H115.982C116.346 103.354 116.703 103.016 117.055 102.801C117.41 102.582 117.775 102.473 118.15 102.473C118.701 102.473 119.131 102.666 119.439 103.053C119.748 103.439 119.902 103.971 119.902 104.646C119.902 105.463 119.768 106.219 119.498 106.914C119.232 107.605 118.859 108.146 118.379 108.537C117.902 108.924 117.363 109.117 116.762 109.117ZM117.852 103.287C117.477 103.287 117.094 103.473 116.703 103.844C116.316 104.215 116.008 104.682 115.777 105.244C115.551 105.807 115.438 106.383 115.438 106.973C115.438 107.402 115.545 107.732 115.76 107.963C115.979 108.189 116.293 108.303 116.703 108.303C117.09 108.303 117.449 108.145 117.781 107.828C118.117 107.512 118.387 107.062 118.59 106.48C118.793 105.895 118.895 105.273 118.895 104.617C118.895 103.73 118.547 103.287 117.852 103.287ZM124.262 102.496C125.004 102.496 125.59 102.717 126.02 103.158C126.449 103.596 126.664 104.199 126.664 104.969C126.664 105.703 126.523 106.396 126.242 107.049C125.961 107.701 125.58 108.205 125.1 108.561C124.619 108.916 124.076 109.094 123.471 109.094C122.721 109.094 122.133 108.873 121.707 108.432C121.281 107.99 121.068 107.387 121.068 106.621C121.068 105.879 121.211 105.182 121.496 104.529C121.781 103.873 122.166 103.371 122.65 103.023C123.135 102.672 123.672 102.496 124.262 102.496ZM125.645 104.834C125.645 104.385 125.521 104.021 125.275 103.744C125.033 103.463 124.703 103.322 124.285 103.322C123.859 103.322 123.477 103.467 123.137 103.756C122.801 104.045 122.539 104.447 122.352 104.963C122.168 105.475 122.076 106.045 122.076 106.674C122.076 107.186 122.199 107.582 122.445 107.863C122.695 108.141 123.053 108.279 123.518 108.279C123.924 108.279 124.289 108.137 124.613 107.852C124.938 107.566 125.189 107.162 125.369 106.639C125.553 106.111 125.645 105.51 125.645 104.834ZM129.969 106.457L127.941 109H126.799L129.582 105.689L128.182 102.578H129.178L130.197 104.992L132.131 102.578H133.268L130.602 105.736L132.078 109H131.094L129.969 106.457Z" fill="#222222"/>
</g>
<defs>
<clipPath id="clip0">
<rect width="190" height="114" fill="white"/>
</clipPath>
</defs>
</svg>
